<?xml version="1.0" encoding="UTF-8" standalone="no"?>
<svg
   xmlns:dc="http://purl.org/dc/elements/1.1/"
   xmlns:cc="http://creativecommons.org/ns#"
   xmlns:rdf="http://www.w3.org/1999/02/22-rdf-syntax-ns#"
   xmlns:svg="http://www.w3.org/2000/svg"
   xmlns="http://www.w3.org/2000/svg"
   xmlns:sodipodi="http://sodipodi.sourceforge.net/DTD/sodipodi-0.dtd"
   xmlns:inkscape="http://www.inkscape.org/namespaces/inkscape"
   width="24"
   height="24"
   version="1.1"
   id="svg827"
   sodipodi:docname="star-on.svg"
   inkscape:version="0.92.4 (5da689c313, 2019-01-14)">
  <metadata
     id="metadata833">
    <rdf:RDF>
      <cc:Work
         rdf:about="">
        <dc:format>image/svg+xml</dc:format>
        <dc:type
           rdf:resource="http://purl.org/dc/dcmitype/StillImage" />
      </cc:Work>
    </rdf:RDF>
  </metadata>
  <defs
     id="defs831" />
  <sodipodi:namedview
     pagecolor="#ffffff"
     bordercolor="#666666"
     borderopacity="1"
     objecttolerance="10"
     gridtolerance="10"
     guidetolerance="10"
     inkscape:pageopacity="0"
     inkscape:pageshadow="2"
     inkscape:window-width="2736"
     inkscape:window-height="1699"
     id="namedview829"
     showgrid="false"
     inkscape:zoom="56.666667"
     inkscape:cx="12"
     inkscape:cy="12"
     inkscape:window-x="-13"
     inkscape:window-y="-13"
     inkscape:window-maximized="1"
     inkscape:current-layer="svg827" />
  <path
     fill="#9c3"
     stroke="#682"
     d="M 12,2.5 14.4,9.5 21.5,9.5 15.8,13.75 18.5,21.5 12,16.625 5.5,21.5 8.2,13.75 2.5,9.5 9.6,9.5 z"
     id="path825"
     style="fill:#ffcc00" />
  <path
     style="fill:#ffd42a;fill-opacity:1;stroke:#000000;stroke-width:0.00666975;stroke-linecap:square;stroke-linejoin:bevel;stroke-miterlimit:4;stroke-dasharray:none;stroke-opacity:1;paint-order:normal"
     d="m 4.528131,22.807172 c 0.00494,-0.0185 0.7017967,-2.021935 1.5485672,-4.452071 C 7.5678009,14.075804 7.6152556,13.935686 7.5837286,13.905323 7.5658249,13.888081 6.09,12.784958 4.3041176,11.453937 2.5182353,10.122917 1.0544118,9.0262728 1.0511765,9.0169502 1.0474271,9.0061463 2.5336105,9 5.1497059,9 7.4071324,9 9.254394,8.99801 9.2547316,8.99559 9.2623216,8.941046 11.988116,1.0388335 11.999465,1.0384681 c 0.009,-2.907e-4 0.562039,1.5904207 1.22891,3.5349144 0.666871,1.9444936 1.28127,3.7359575 1.36533,3.9810311 L 14.746543,9 h 4.113591 c 4.024616,0 4.112839,7.165e-4 4.078787,0.03313 -0.01914,0.018221 -1.492009,1.118784 -3.273039,2.445693 -1.781029,1.32691 -3.248277,2.42218 -3.260551,2.433934 -0.01786,0.01711 0.283725,0.900017 1.510966,4.423425 0.843305,2.421129 1.53919,4.421123 1.546411,4.444429 0.01049,0.03385 0.0077,0.04029 -0.01395,0.03198 -0.0149,-0.0057 -1.695704,-1.261888 -3.735127,-2.791491 -2.302511,-1.726925 -3.716123,-2.77619 -3.729363,-2.768151 -0.01173,0.0071 -1.684998,1.260499 -3.7183806,2.785284 -2.0333824,1.524786 -3.7082363,2.779142 -3.7218975,2.787457 -0.018763,0.01142 -0.022641,0.0069 -0.015854,-0.01852 z m 4.7348047,-4.742548 2.7352883,-2.052173 2.740134,2.055117 c 1.507074,1.130314 2.743886,2.051366 2.748471,2.046779 0.0061,-0.0061 -2.188954,-6.333099 -2.258859,-6.510808 -0.0088,-0.02244 0.356651,-0.303242 1.652995,-1.270001 0.915381,-0.682653 1.993888,-1.487628 2.396682,-1.788833 L 20.01,9.9970588 17.028028,9.9882353 14.046055,9.9794118 13.035662,7.0325778 C 12.479946,5.4118189 12.020559,4.0737307 12.014803,4.0590484 c -0.0081,-0.020662 -0.01545,-0.016724 -0.03251,0.017422 -0.01212,0.024265 -0.474086,1.3643257 -1.02658,2.9779135 L 9.9511785,9.9881797 6.9694557,9.988215 c -2.5652515,1.76e-5 -2.9781134,0.0035 -2.9558823,0.024892 0.014212,0.01368 1.0780462,0.808657 2.3640757,1.766626 1.2860294,0.957969 2.3522641,1.755148 2.3694104,1.771507 0.029665,0.0283 -0.020189,0.17715 -1.029305,3.07308 -1.2766899,3.663806 -1.2180314,3.493435 -1.2025957,3.492909 0.00687,-2.3e-4 1.2433701,-0.923903 2.7477789,-2.052598 z"
     id="path835"
     inkscape:connector-curvature="0" />
</svg>
